<svg width="72" height="80" viewBox="0 0 72 80" fill="none" xmlns="http://www.w3.org/2000/svg">
<g filter="url(#filter0_d)">
<path d="M67.8251 18.271V43.694C67.8251 53.7844 59.4047 61.9651 49.0187 61.9651H47.1165L37.4026 71.3963C37.0222 71.7659 36.4959 72 35.9126 72C35.3736 72 34.8854 71.809 34.5113 71.4887L34.3464 71.3285L34.3401 71.3224L24.7086 61.9651H22.8001C12.4204 61.9651 4 53.7844 4 43.694V18.271C4 8.1807 12.4204 0 22.8064 0H49.0187C59.4047 0 67.8251 8.1807 67.8251 18.271Z" fill="#FFD666"/>
<path d="M18.2306 35.219C16.3791 35.219 15.3238 37.2687 16.3981 38.7487C20.575 44.5139 27.4818 48.2728 35.2859 48.2728C43.09 48.2728 49.9904 44.5077 54.1674 38.7487C55.2416 37.2687 54.1863 35.219 52.3348 35.219H18.2306Z" fill="white"/>
<path d="M29.0742 26.4937H17.902V21.0196C17.902 17.9976 20.4044 15.5454 23.4881 15.5454C26.5719 15.5454 29.0742 17.9976 29.0742 21.0196V26.4937Z" fill="white"/>
<path d="M52.6693 26.4937H41.4971V21.0196C41.4971 17.9976 43.9994 15.5454 47.0832 15.5454C50.1669 15.5454 52.6693 17.9976 52.6693 21.0196V26.4937Z" fill="white"/>
</g>
<defs>
<filter id="filter0_d" x="0" y="0" width="71.8251" height="80" filterUnits="userSpaceOnUse" color-interpolation-filters="sRGB">
<feFlood flood-opacity="0" result="BackgroundImageFix"/>
<feColorMatrix in="SourceAlpha" type="matrix" values="0 0 0 0 0 0 0 0 0 0 0 0 0 0 0 0 0 0 127 0"/>
<feOffset dy="4"/>
<feGaussianBlur stdDeviation="2"/>
<feColorMatrix type="matrix" values="0 0 0 0 0 0 0 0 0 0 0 0 0 0 0 0 0 0 0.25 0"/>
<feBlend mode="normal" in2="BackgroundImageFix" result="effect1_dropShadow"/>
<feBlend mode="normal" in="SourceGraphic" in2="effect1_dropShadow" result="shape"/>
</filter>
</defs>
</svg>
